<?xml version="1.0" encoding="UTF-8" standalone="no"?>
<!-- Creator: CorelDRAW -->

<svg
   xml:space="preserve"
   width="203.91508mm"
   height="203.91469mm"
   style="clip-rule:evenodd;fill-rule:evenodd;image-rendering:optimizeQuality;shape-rendering:geometricPrecision;text-rendering:geometricPrecision"
   viewBox="0 0 203.91508 203.91469"
   id="svg2"
   version="1.1"
   inkscape:version="1.1.2 (b8e25be833, 2022-02-05)"
   sodipodi:docname="Coca-Cola_Zero_America.svg"
   xmlns:inkscape="http://www.inkscape.org/namespaces/inkscape"
   xmlns:sodipodi="http://sodipodi.sourceforge.net/DTD/sodipodi-0.dtd"
   xmlns="http://www.w3.org/2000/svg"
   xmlns:svg="http://www.w3.org/2000/svg"
   xmlns:rdf="http://www.w3.org/1999/02/22-rdf-syntax-ns#"
   xmlns:cc="http://creativecommons.org/ns#"
   xmlns:dc="http://purl.org/dc/elements/1.1/"><metadata
     id="metadata52"><rdf:RDF><cc:Work
         rdf:about=""><dc:format>image/svg+xml</dc:format><dc:type
           rdf:resource="http://purl.org/dc/dcmitype/StillImage" /><dc:title /></cc:Work></rdf:RDF></metadata><sodipodi:namedview
     pagecolor="#ffffff"
     bordercolor="#666666"
     borderopacity="1"
     objecttolerance="10"
     gridtolerance="10"
     guidetolerance="10"
     inkscape:pageopacity="0"
     inkscape:pageshadow="2"
     inkscape:window-width="1128"
     inkscape:window-height="682"
     id="namedview50"
     showgrid="false"
     fit-margin-top="0"
     fit-margin-left="0"
     fit-margin-right="0"
     fit-margin-bottom="0"
     inkscape:zoom="0.53134979"
     inkscape:cx="388.63288"
     inkscape:cy="307.70691"
     inkscape:window-x="-6"
     inkscape:window-y="-6"
     inkscape:window-maximized="1"
     inkscape:current-layer="_128376272"
     inkscape:pagecheckerboard="0"
     inkscape:document-units="mm" /><defs
     id="defs4"><style
       type="text/css"
       id="style6"><![CDATA[
    .fil0 {fill:#1F1A17}
    .fil3 {fill:white}
    .fil2 {fill:#E51E2A}
    .fil1 {fill:url(#id0)}
   ]]></style><linearGradient
       id="id0"
       gradientUnits="userSpaceOnUse"
       x1="10.2224"
       y1="232.44901"
       x2="214.13699"
       y2="232.44901"><stop
         offset="0"
         style="stop-color:#A7B6BF"
         id="stop9" /><stop
         offset="0.0705882"
         style="stop-color:#AAB8C1"
         id="stop11" /><stop
         offset="0.211765"
         style="stop-color:white"
         id="stop13" /><stop
         offset="0.368627"
         style="stop-color:#A7B6BF"
         id="stop15" /><stop
         offset="0.490196"
         style="stop-color:#A7B6BF"
         id="stop17" /><stop
         offset="0.611765"
         style="stop-color:#A7B6BF"
         id="stop19" /><stop
         offset="0.768627"
         style="stop-color:white"
         id="stop21" /><stop
         offset="0.921569"
         style="stop-color:#AEBCC5"
         id="stop23" /><stop
         offset="1"
         style="stop-color:#A7B6BF"
         id="stop25" /></linearGradient></defs><g
     id="Layer_x0020_1"
     transform="translate(-10.221909,-94.2213)"
     inkscape:label="Layer 1"><metadata
       id="CorelCorpID_0Corel-Layer" /><polygon
       class="fil0"
       points="10.2224,298.136 214.137,298.136 214.137,94.2213 10.2224,94.2213 "
       id="polygon29"
       style="fill:#1f1a17" /><path
       class="fil1"
       d="m 137.462,240.847 c -25.8906,4.5287 -52.9638,10.1 -77.4245,9.1275 C 41.1151,249.2286 28.5056,245.6394 18.6529,241.7 l -8.431,-3.0658 0.0288,-24.6832 8.361,5.0396 c 24.7862,15.4528 50.2277,21.6792 74.062,23.0926 37.5647,2.2335 70.374,-7.3884 87.2072,-11.2866 12.7495,-2.934 24.8151,-4.7842 34.2557,-2.9835 l 0,12.2798 c -20.7109,-7.9983 -47.8748,-4.2773 -76.6746,0.7541 z"
       id="path31"
       inkscape:connector-curvature="0"
       style="fill:url(#id0)" /><g
       id="_128376272"><g
         id="g34"><path
           id="_191860760"
           class="fil2"
           d="m 94.328,186.526 c -6.8563,-4.2486 -16.1427,-4.9984 -31.1571,-0.9997 -16.0559,3.5821 -21.3501,5.9147 -28.3799,1.2496 -2.6905,-2.2493 -3.6452,-5.9147 -2.9509,-11.2463 1.7358,-8.5804 6.2488,-16.911 14.2334,-26.0746 4.513,-4.8317 8.6789,-8.9137 14.1466,-10.5798 4.1658,-0.9996 3.8187,2.166 3.2979,2.5825 -0.5207,0 -1.4754,0.0833 -2.1697,0.4998 -0.5207,0.4166 -2.0829,1.8328 -2.1697,3.6655 -0.1736,2.7491 2.864,2.1659 4.1658,0.6664 1.3887,-1.7494 3.4716,-5.0816 1.8226,-8.1639 -0.6075,-1.083 -1.8226,-1.8327 -3.298,-2.0827 -5.0337,-0.3332 -9.7203,1.9994 -13.9729,4.4985 -9.46,6.3313 -17.0106,15.0783 -21.3501,24.5752 -2.4301,5.748 -4.6866,13.9953 -1.3018,20.743 2.6037,4.6651 7.8978,7.1643 14.3201,6.6645 4.513,-0.4999 9.894,-1.9161 13.6259,-2.7491 3.6451,-0.8331 22.3047,-6.9977 28.4667,3.7487 0,0 1.9961,-3.832 7.1166,-3.9153 4.1659,-0.3333 10.2411,1.1662 14.6673,4.3318 -1.4754,-2.1659 -5.6412,-5.2482 -9.1128,-7.4141 z"
           inkscape:connector-curvature="0"
           style="fill:#e51e2a" /><path
           id="_191860472"
           class="fil2"
           d="m 65.0802,150.538 c -3.5583,-2.2493 -10.5882,1.9993 -16.1427,9.1636 -5.2073,6.4978 -7.377,13.9953 -4.9469,17.4941 3.5583,4.082 10.241,-1.8327 13.1051,-4.9983 l 0.3471,-0.4165 c 1.9094,-1.9993 3.3848,-4.4152 4.8602,-6.6644 0,0 1.3018,-2.0827 1.3886,-2.2493 0.7811,-0.0833 1.8226,-0.3332 2.9508,-0.6664 -0.0868,0.0833 -4.2526,6.9143 -3.8187,10.3298 0.0868,0.9997 0,4.8318 3.8187,5.998 5.1206,0.7498 9.2864,-2.999 12.8448,-6.4145 0,0 0.6075,-0.5831 0.9546,-0.9163 -0.0868,0.3332 -0.1735,0.833 -0.1735,0.833 -1.4755,4.9983 0.5207,5.998 1.8225,6.4145 3.8187,1.083 8.4185,-4.2486 8.4185,-4.2486 -0.1736,1.6662 -0.5207,3.0823 1.3886,4.1653 1.7358,0.5832 3.4716,-0.2499 4.8602,-1.1663 4.7734,-3.2489 8.6789,-8.4138 11.8033,-12.7457 l -1.9962,0 c 0,0 -4.9469,6.8311 -8.1581,8.3306 0,0 -0.5207,0.2499 -0.8679,0 -0.4339,-0.3333 -0.2604,-1.083 0,-1.5828 0,0 12.324,-20.5765 12.324,-20.5765 l -5.8148,0 c 0,0 -0.6076,0.9997 -0.6943,1.083 0,-0.0833 -0.0868,-0.1666 -0.1736,-0.2499 -3.6451,-4.8318 -11.8033,2.5824 -17.9653,11.0796 -2.3433,3.3322 -5.3809,6.9976 -8.5053,9.6634 0,0 -4.5998,4.082 -6.5959,1.1663 -0.6943,-1.2496 -0.5208,-2.999 -0.0868,-4.1653 2.2565,-6.3312 6.2488,-12.0793 10.7618,-15.4948 1.3018,-0.9164 2.6904,-1.2496 3.3847,-0.8331 0.6076,0.4166 0.7811,1.3329 0.3472,1.9161 -1.0415,0 -1.9094,0.3332 -2.6037,0.9996 -1.3018,1.3329 -1.8225,2.6658 -1.3886,3.9154 2.0829,2.8324 6.2488,-2.8324 6.0752,-6.2479 -0.0868,-1.2496 -0.7811,-2.4159 -1.8225,-2.999 -1.4754,-0.8331 -3.8187,-0.5831 -5.2941,0.0833 -1.9962,0.7497 -5.2074,3.2489 -7.0299,5.2482 -2.3433,2.4992 -6.4224,5.2483 -7.6374,4.9151 0.4339,-1.083 3.8187,-7.6641 0.2603,-10.1633 z m 28.0328,9.83 c 1.1282,-1.4995 4.4262,-5.5814 5.2073,-6.2479 2.7772,-2.2492 3.8187,-1.2496 3.9055,-0.5831 -2.5169,4.3319 -5.4677,9.3302 -8.3317,13.8287 0.0868,-0.0833 -0.8679,1.2496 -0.8679,1.2496 -1.215,1.8327 -2.4301,3.3322 -4.513,4.4152 -0.2604,0.0833 -0.6943,0.1666 -1.0415,-0.0833 -0.4339,-0.25 -0.5207,-0.6665 -0.5207,-1.083 0.1736,-1.3329 1.649,-5.6648 6.162,-11.4962 z m -31.6779,2.5825 c 0,0 0,0.1666 -0.0868,0.1666 0,0 -2.5169,3.9987 -2.5169,3.9987 -1.5622,1.916 -3.4715,4.4152 -5.8148,5.5814 -0.6943,0.25 -1.649,0.4166 -2.1697,-0.2499 -1.0415,-1.1662 -0.5208,-2.8324 -0.0868,-4.2485 l 0.1736,-0.4166 c 1.215,-3.3322 3.2979,-6.2479 5.2073,-8.997 0,0 0.0868,0 0.0868,0 0,0 0,0 0,0.0833 1.3018,2.2493 3.5583,3.249 5.2941,3.7488 0,0 0,0.0833 0,0.0833 0,0 0,0.0833 -0.0868,0.2499 z m 2.4301,-4.6651 c 0,0 -1.1283,2.4992 -1.1283,2.4992 -0.1736,0.0833 -0.4339,0.0833 -0.6943,0 l -0.5207,-0.0833 c -1.5622,-0.4999 -2.7773,-1.4995 -3.1244,-2.6658 -0.5207,-2.3326 1.5622,-4.1653 2.4301,-4.8317 0.9547,-0.5832 2.2565,-0.9164 3.0376,-0.3333 0.5207,0.5832 0.6943,1.3329 0.6943,2.0827 0,0.9997 -0.3472,2.2492 -0.6943,3.3322 z"
           inkscape:connector-curvature="0"
           style="fill:#e51e2a" /><path
           id="_191860808"
           class="fil2"
           d="m 137.462,165.783 c -0.5207,-1.1663 -1.9093,-1.916 -3.2979,-1.8327 -4.5998,0.4165 -9.1129,4.0819 -11.5429,9.2469 -1.2151,2.7491 -1.9094,4.915 -2.3433,8.4971 1.4754,-1.5828 4.3394,-4.2485 7.7242,-5.6647 0,0 0.4339,-3.3323 2.6904,-6.4146 0.8679,-1.2495 2.6905,-3.2489 4.5998,-2.6657 1.7358,0.4998 1.1283,5.0816 -1.1282,9.4968 -1.7358,3.2489 -4.2527,6.4978 -6.8564,8.6638 -2.3433,1.916 -5.728,4.1652 -8.7656,2.4158 -1.8226,-1.0829 -2.7773,-3.3322 -2.6037,-6.1646 0.8679,-8.1639 4.7734,-15.1616 10.3279,-23.0756 5.728,-7.3309 11.9768,-14.9117 20.4821,-18.9103 1.7358,-0.9164 3.3848,-1.083 4.7734,-0.5832 0,0 -7.9846,4.2486 -11.8033,11.996 -0.9546,1.9993 -2.3433,4.6651 -0.9546,6.9977 0.6943,1.2496 1.9961,1.3329 2.9508,1.3329 4.6866,-1.083 7.7242,-5.2483 10.1543,-9.0803 1.3886,-2.9157 2.6904,-5.7481 2.6904,-8.997 0,-0.3332 0,-0.9164 -0.0868,-1.2496 2.2565,-1.1663 6.8563,0.833 6.8563,0.833 3.5584,1.1663 11.109,6.7478 13.7126,7.8308 1.2151,-1.4162 3.298,-3.4989 4.4263,-4.5818 l -1.649,-0.9997 c -2.6905,-1.5828 -5.5545,-2.999 -8.3317,-4.4985 -6.3356,-3.3322 -11.4561,-2.1659 -14.0598,-1.2496 -1.0415,0.3332 -1.9961,0.6665 -1.9961,0.6665 -1.9962,-2.0827 -5.1206,-1.8328 -7.4639,-1.3329 -8.5053,2.3325 -16.3163,8.0806 -24.7348,17.9106 -6.2488,7.7475 -10.0675,14.4119 -12.0636,20.993 -1.649,4.4152 -2.0829,10.913 1.7358,14.8284 3.2979,3.2489 7.6374,2.4992 10.675,1.3329 6.6827,-3.0823 12.6711,-9.9134 15.622,-17.6608 0.6943,-2.3325 1.4754,-5.5814 0.2603,-8.0806 z m 15.2748,-24.4085 c -0.8678,9.6634 -8.6788,15.4115 -10.675,15.828 -1.1282,0.2499 -3.1244,-0.2499 -1.3886,-4.3319 2.6905,-5.4981 7.1167,-10.0799 11.9769,-12.4958 0.0867,0.4166 0.0867,0.6665 0.0867,0.9997 z"
           inkscape:connector-curvature="0"
           style="fill:#e51e2a" /><path
           id="_191861048"
           class="fil2"
           d="m 199.256,142.624 c -4.2526,2.3325 -8.5921,3.7487 -13.8862,3.2489 -1.4754,1.5828 -2.9508,3.2489 -4.2526,4.915 7.4638,1.8327 15.3616,-2.1659 19.701,-6.0813 4.6866,-3.832 7.0299,-8.6638 7.0299,-8.6638 0,0 -3.4716,3.7488 -8.5921,6.5812 z"
           inkscape:connector-curvature="0"
           style="fill:#e51e2a" /><polygon
           id="_191860904"
           class="fil2"
           points="116.459,155.619 119.583,150.621 114.029,150.621 110.905,155.619 "
           style="fill:#e51e2a" /><path
           id="_191860856"
           class="fil2"
           d="m 185.369,187.025 c -0.6075,0.4165 -1.4754,0.0833 -1.1282,-0.8331 0.7811,-2.2492 3.8187,-6.9143 3.8187,-6.9143 l 8.6788,-14.7451 -5.9016,0 c -0.3472,0.4998 -0.9547,1.4995 -0.9547,1.4995 -0.2603,-0.4165 -1.0414,-1.4162 -1.3886,-1.5828 -1.4754,-0.9164 -3.5583,-0.4998 -5.0337,0.3332 -6.3356,3.5822 -10.9354,10.5798 -14.5806,16.078 0,0 -3.9054,6.0813 -5.9884,6.5811 -1.649,0.0833 -1.4754,-2.0826 -1.4754,-2.5825 0.6943,-3.5821 2.1697,-6.9976 3.6451,-10.1632 3.1244,-1.9994 6.596,-4.6651 9.8072,-7.6641 6.8563,-6.3312 12.6711,-13.4955 13.539,-15.0783 0,0 -0.9547,0.1666 -1.9961,0.2499 -5.2941,7.081 -16.1427,17.4108 -19.4407,18.9103 1.3886,-3.3322 10.8486,-19.4101 18.8332,-27.0742 l 1.3018,-1.1663 c 1.9093,-1.8327 3.9923,-3.7488 5.5545,-3.9987 0.1735,-0.0833 0.3471,0 0.5207,0.3333 0.0868,1.4161 -0.4339,2.4991 -1.1283,3.6654 l -0.8678,1.7494 c 0,0 1.3018,-0.2499 2.0829,-0.4998 0.9547,-1.7494 2.0829,-3.6655 1.649,-5.998 -0.0868,-0.7498 -0.6943,-1.2496 -1.3886,-1.4162 -2.4301,-0.4165 -5.0338,1.2496 -7.1167,2.6658 l -0.0868,0 c -10.7618,8.1639 -19.8746,19.8267 -27.8592,35.8213 -0.6075,0.4165 -2.7772,0.9164 -3.2112,0.6665 0.7811,-1.5828 1.8226,-3.6655 2.2565,-5.9147 0.0868,-0.6665 0.1736,-1.3329 0.1736,-1.9994 0,-1.3328 -0.3472,-2.6657 -1.649,-3.5821 -1.4754,-0.7497 -3.3847,-0.4165 -4.6866,0.1666 -5.6412,2.2493 -9.8939,7.8307 -12.9315,12.4958 -1.649,2.9157 -3.298,5.998 -3.8187,9.6635 -0.2604,2.749 0.3472,4.5818 1.9961,5.4981 1.7358,0.8331 3.9055,0 4.7734,-0.4165 5.7281,-2.9157 9.8071,-8.7471 12.9315,-14.1619 0.1736,0 1.9094,0 3.2112,-0.3333 0,0 0,0 0,0 -0.0868,0.25 -0.6943,2.166 -0.6943,2.166 -2.0829,5.6648 -2.9508,9.4968 -1.0414,11.8294 2.6904,3.1656 7.2034,-0.1666 10.8485,-4.4985 -0.7811,5.2482 2.083,6.0813 4.2527,5.6647 2.4301,-0.6664 5.2073,-3.1656 6.5091,-4.4985 -0.3471,1.4995 -0.2603,4.2486 1.9962,4.5819 1.5622,0.2499 2.6904,-0.4999 4.0791,-1.2496 4.8601,-2.4992 10.5882,-10.9964 12.0636,-13.3289 l -1.9094,0 c -2.1697,3.0823 -4.8601,7.1643 -8.2449,9.0803 z m -43.3944,-0.5831 c -0.3471,-0.4999 -0.4339,-0.9997 -0.4339,-1.4995 -0.0868,-3.1657 3.4715,-8.8304 5.9884,-11.996 0,0 0,0 0,0 1.0415,2.3325 3.4716,3.6654 4.947,4.2485 -1.8226,3.8321 -7.9846,12.0793 -10.5015,9.247 z m 11.4562,-10.9131 c -0.1736,0.1666 -3.1244,-0.833 -3.732,-3.4988 -0.5207,-2.3325 1.1283,-4.082 2.7773,-4.9983 0.6075,-0.4999 1.649,-0.7498 2.4301,-0.4165 0.6943,0.4165 0.8679,1.2495 0.8679,2.0826 0,0.5831 0,1.083 -0.0868,1.5828 0,0 0,0.0833 0,0.1666 -0.5208,1.7494 -1.3019,3.4988 -2.2565,5.0816 z m 24.1272,9.8301 c 0,0 -0.6075,0.4998 -0.6075,0.4998 -0.7811,0.6665 -1.649,1.4162 -2.6037,1.083 -0.3471,-0.0833 -0.5207,-0.4998 -0.5207,-0.7498 -0.0868,-1.9993 0.8679,-3.832 1.7358,-5.5814 l 0.2603,-0.4999 c 2.6037,-4.1652 5.6413,-9.0803 10.0675,-12.4958 0.7811,-0.4998 1.5622,-0.9996 2.4301,-0.6664 0.1736,0.2499 0.434,0.4998 0.434,0.833 0,0.0833 -0.0868,0.3332 -0.1736,0.4166 -1.2151,1.916 -2.4301,3.9986 -3.5583,5.9146 -2.2566,3.8321 -4.5998,7.8308 -7.4639,11.2463 z"
           inkscape:connector-curvature="0"
           style="fill:#e51e2a" /></g><g
         id="g42"><path
           id="_124560120"
           class="fil3"
           d="m 133.214,213.23 c 0,-6.4783 5.2731,-11.7514 11.9021,-11.7514 6.5537,0 11.6761,5.2731 11.6761,11.7514 0,6.5537 -5.1224,11.8268 -11.6761,11.8268 -6.629,0 -11.9021,-5.2731 -11.9021,-11.8268 z m 21.3936,0 c 0,-5.5744 -3.8418,-9.7928 -9.4915,-9.7928 -5.7251,0 -9.6422,4.2184 -9.6422,9.7928 0,5.6497 3.9171,9.9435 9.6422,9.9435 5.6497,0 9.4915,-4.2938 9.4915,-9.9435 z"
           inkscape:connector-curvature="0"
           style="fill:#ffffff" /><path
           id="_128376992"
           class="fil3"
           d="m 63.3082,203.061 c 0,-0.5273 0.452,-0.9793 0.9793,-0.9793 l 17.1751,0 c 0.5274,0 0.9793,0.452 0.9793,0.9793 0,0.1507 -0.0753,0.3767 -0.1506,0.5273 l -9.4916,15.2919 8.211,0 c 0.5273,0 0.9793,0.452 0.9793,0.9793 l 0,3.8418 c 0,0.5273 -0.452,0.9793 -0.9793,0.9793 l -17.5518,0 c -0.5273,0 -0.9793,-0.452 -0.9793,-0.9793 0,-0.1506 0.0753,-0.3013 0.1506,-0.4519 l 9.2656,-15.3673 -7.6083,0 c -0.5273,0 -0.9793,-0.452 -0.9793,-0.9793 l 0,-3.8418 z"
           inkscape:connector-curvature="0"
           style="fill:#ffffff" /><path
           id="_128377208"
           class="fil3"
           d="m 107.979,220.763 -1.9586,-2.1093 c -0.3766,-0.3013 -0.904,-0.3013 -1.2806,0.0754 l 0,0 c -1.2806,0.9793 -3.2392,1.8079 -5.7251,1.8079 -4.1431,0 -6.4783,-2.1092 -7.1563,-5.4237 l 17.3258,0 c 0.5274,0 0.9793,-0.3767 0.9793,-0.904 0,-7.4576 -4.3691,-12.7307 -11.7514,-12.7307 -6.855,0 -12.1281,5.0471 -12.1281,11.8267 0,6.7797 5.0471,11.8268 12.8061,11.8268 4.0678,0 6.855,-1.2806 8.8889,-3.0132 0.3766,-0.3766 0.3766,-0.9793 0,-1.3559 z m -9.5669,-14.7646 c 3.8418,0 5.7251,2.2599 6.177,5.3484 l -12.7307,0 c 0.678,-3.3899 3.0885,-5.3484 6.5537,-5.3484 z"
           inkscape:connector-curvature="0"
           style="fill:#ffffff" /><path
           id="_128377664"
           class="fil3"
           d="m 128.167,205.471 c 0.8286,0.3013 1.8079,-0.0754 2.1846,-0.9793 0.452,-0.904 0,-1.9586 -0.904,-2.4106 l 0,0 c -0.8286,-0.3013 -1.7326,-0.5273 -2.8625,-0.5273 -2.6365,0 -5.1977,1.4313 -6.629,4.8964 l 0.1506,-3.0885 c 0,-1.0546 -0.9039,-1.8832 -1.9585,-1.8832 -1.0546,0 -1.8833,0.8286 -1.8833,1.8832 l 0,19.8871 c 0,1.0546 0.8287,1.8832 1.8833,1.8832 1.0546,0 1.9585,-0.8286 1.9585,-1.8832 l 0,-10.5462 c 0,-5.2731 2.6366,-7.533 5.8004,-7.533 0.904,0 1.6573,0.0754 2.2599,0.3014 z"
           inkscape:connector-curvature="0"
           style="fill:#ffffff" /></g></g></g></svg>
